<?xml version="1.0" encoding="utf-8"?>
<!-- Generator: Adobe Illustrator 16.0.0, SVG Export Plug-In . SVG Version: 6.00 Build 0)  -->
<!DOCTYPE svg PUBLIC "-//W3C//DTD SVG 1.1//EN" "http://www.w3.org/Graphics/SVG/1.1/DTD/svg11.dtd">
<svg version="1.1" id="Layer_1" xmlns="http://www.w3.org/2000/svg" xmlns:xlink="http://www.w3.org/1999/xlink" x="0px" y="0px"
	 width="234.468px" height="128.085px" viewBox="0 0 234.468 128.085" enable-background="new 0 0 234.468 128.085"
	 xml:space="preserve">
<path fill="#FA0029" d="M130.902,109.213c-14.375,3.186-28.046,5.002-41.014,5.446c-12.968,0.519-24.638-0.26-35.012-2.334
	c-10.374-2-18.822-5.15-25.343-9.448c-6.52-4.297-10.559-9.595-12.115-15.895c-1.186-5.557-0.259-11.263,2.779-17.116
	c-2.668,4.149-4.446,8.225-5.335,12.226c-0.964,4.002-0.89,7.892,0.222,11.671c1.926,6.447,6.41,11.708,13.449,15.783
	c7.04,4.076,15.969,6.854,26.787,8.337c10.893,1.556,23.045,1.704,36.457,0.444c13.412-1.186,27.454-3.854,42.125-8.003
	c14.375-4.149,27.491-9.151,39.348-15.006C160.58,101.024,146.464,105.655,130.902,109.213"/>
<path fill="#0A57A4" d="M107.45,17.181c-14.375,4.076-27.491,9.077-39.347,15.005c12.671-5.78,26.787-10.448,42.348-14.005
	c14.375-3.186,28.047-5.001,41.014-5.446c12.969-0.445,24.64,0.333,35.014,2.334c10.374,2.075,18.82,5.261,25.342,9.559
	c6.595,4.224,10.633,9.522,12.115,15.894c1.186,5.484,0.259,11.152-2.779,17.006c5.41-8.299,7.151-16.227,5.224-23.786
	c-1.926-6.446-6.408-11.707-13.448-15.783c-7.039-4.075-16.006-6.891-26.898-8.447c-10.893-1.482-23.045-1.63-36.457-0.445
	C136.164,10.327,122.122,13.031,107.45,17.181"/>
<path fill="#FA0029" d="M67.605,68.949L67.605,68.949l-2.421,9.19c0,0-0.373,1.49-0.373,3.291c0,0,0,0.993,0.373,2.173H46.681
	c0,0,1.925-2.919,2.98-7.079l7.513-28.872c0,0,0.373-1.49,0.373-3.228c0,0,0-0.994-0.373-2.236H89.71c0,0,5.277,0,7.451,1.801
	c0,0,2.607,2.235,2.607,5.712c0,0,0,0.994-0.496,2.856l-1.863,7.327c0,0-1.366,5.092-4.098,7.204c0,0-1.739,1.303-4.284,1.676
	c0,0-1.242,0.186-4.595,0.186H67.605z M69.344,62.12L69.344,62.12h7.451c0,0,2.546,0,3.518-0.703c0,0,0.952-0.725,1.573-3.146
	l1.553-5.899c0,0,0.186-0.745,0.186-1.242c0,0,0-2.111-3.229-2.111h-7.637L69.344,62.12z M115.912,68.949L115.912,68.949
	l-2.422,9.19c0,0-0.372,1.49-0.372,3.291c0,0,0,0.993,0.372,2.173H94.987c0,0,1.925-2.919,2.981-7.079l7.513-28.872
	c0,0,0.372-1.49,0.372-3.228c0,0,0-0.994-0.372-2.236h32.535c0,0,5.277,0,7.45,1.801c0,0,2.608,2.235,2.608,5.712
	c0,0,0,0.994-0.497,2.856l-1.863,7.327c0,0-1.365,5.092-4.098,7.204c0,0-1.738,1.303-4.284,1.676c0,0-1.242,0.186-4.595,0.186
	H115.912z M117.65,62.12L117.65,62.12h7.451c0,0,2.546,0,3.519-0.703c0,0,0.952-0.725,1.573-3.146l1.552-5.899
	c0,0,0.187-0.745,0.187-1.242c0,0,0-2.111-3.229-2.111h-7.638L117.65,62.12z M168.751,59.14L168.751,59.14h25.893
	c0,0-1.926,2.918-3.043,7.078l-3.042,11.922c0,0-0.436,1.552-0.436,3.291c0,0,0,0.993,0.436,2.173h-13.102l0.062-3.85
	c0,0-0.869,2.234-2.07,3.043c0,0-1.221,0.807-3.642,0.807h-13.039c0,0-5.651,0-7.639-1.428c0,0-3.104-2.36-3.104-6.147
	c0,0,0-1.428,0.683-4.223l5.34-20.552c0,0,1.429-5.588,5.402-7.575c0,0,2.421-1.179,5.836-1.428c0,0,0.807-0.062,6.147-0.062h27.071
	l-0.746,7.886c0,0-2.358-1.056-7.077-1.056h-15.896c0,0-2.422,0-3.353,0.559c0,0-1.181,0.621-1.739,2.732l-5.401,20.862
	c0,0-0.249,1.056-0.249,1.553c0,0,0,2.049,2.856,2.049h5.278c0,0,1.986,0,2.731-1.056c0,0,0.435-0.56,1.056-2.98l1.801-6.768h-3.975
	c0,0-2.731,0-4.967,0.745L168.751,59.14z"/>
<rect fill="none" width="234.468" height="128.085"/>
</svg>
