<?xml version="1.0" encoding="utf-8"?>
<!-- Generator: Adobe Illustrator 16.0.0, SVG Export Plug-In . SVG Version: 6.00 Build 0)  -->
<!DOCTYPE svg PUBLIC "-//W3C//DTD SVG 1.1//EN" "http://www.w3.org/Graphics/SVG/1.1/DTD/svg11.dtd">
<svg version="1.1" id="Layer_1" xmlns="http://www.w3.org/2000/svg" xmlns:xlink="http://www.w3.org/1999/xlink" x="0px" y="0px"
	 width="1292px" height="230px" viewBox="0 0 1292 230" enable-background="new 0 0 1292 230" xml:space="preserve">
<path fill="#FFFFFF" d="M1291.23,225.549V9.988c-3.48-0.526-5.41-2.717-9.311-3.517c-0.109,0.538-0.2,1.062,0.32,1.175
	c-0.521,0.984-1.01-0.888-1.24-1.246c-0.47,0.37-1.71-0.016-1.51,1.023c-0.5-0.473-0.7-1.146-2.21-0.939
	c0.569,1.74-0.931-0.178-1.591,1.786c-0.76-1.179-2.289-0.501-3.129-1.013c-0.181,0.814,0.229,1.232,1.25,1.245
	c-0.841,1.192-1.03-0.877-2.25-0.562c0.25,0.41,1,0.475,0.779,1.208c-2.66-1.716-8.609-3.156-11.25-2.802
	c0.11,0.445,0.69,1.02,0.87,0.45c-0.06,1.874-4.71-1.972-6.34-1.266c-0.32-2.447-7.56-0.454-11.06-0.499
	c-0.66-0.004-1.301-0.864-1.291-0.869c-0.029,0.009-5.1,2.24-6.51,0.253c0.23,1.272-6.189-0.083-5.46-0.819
	c-1.43-0.294-1.18,1.079-2.85,0.537c0.33,0.591,1.42,0.665,2.21,0.938c-4.311,1.208-7.2-0.851-9.92-2.314
	c-0.58,0.124-1,0.404-1.051,1.063c-1-0.018-0.05-1.357-0.229-1.932c-1.399,1.009-2.49,0.396-3.399,1.261
	c-3.041-2.398-8.021-0.983-9.5-1.902c0.329,0.579-1.721,0.666-1.061,1.063c-2.22,0.735-1.79-1.133-4.5-1.12
	c-1.03,0.172,0.73,1.322,1.2,1.622c0.05,0.948-2.511-1.885-4.41-1.879c-1.15,0.256,0.92,1.198,0.2,2.306
	c-2.351-1.444-0.811-1.555-2.45-2.871c-0.64,0.068-0.49,0.919-0.64,1.481c-1.971-1.614-3.99-2.537-5.92-0.857
	c-0.25-2.274-2.091,2.931-1.65,0.765c-1.52,1.105-2.35-2.48-3.391-1.166c-1.35-0.359,0.53,1.655,0.181,0.914
	c-1.96,1.348-4.851-2.145-5.45,0.576c0.25-1.501-0.64-0.935-2.41-0.813c-1.189-0.006,0.561-1.725-0.17-0.916
	c-1.01-0.362-0.84,0.904-2.12,0.729c-2.33,1.154-4.81-0.293-7.109-1.078c-1.171,0.168,0.739,1.07,0.239,1.926
	c-0.17-0.727-2.17-1.594-1.88,0.229c-1.069,0.034-0.38-1.129-1.239-1.245c-0.82-0.03-2.511,2.327-2.801,0.159
	c-0.85-0.006-0.439,1.259-1.1,1.445c-1.55-0.284,0.939-2.022-0.23-1.932c-1.859-0.265-0.34,0.77-0.64,1.476
	c-0.32-1.517-3.91,0.184-2.62-1.356c-1.5,0.352-2.609,1.336-4.21,0.43c1.01,0.843,0.38,0.635,0.69,1.963
	c-1.59-0.529-2.29,0.641-4.09-0.703c-0.851,0.687-0.021,0.483-0.181,1.508c-2.1,0.637-8.319-2.374-8.76-0.314
	c-2.16,0.388-5.05-1.512-6.93-0.169c-1.44-1.684-4-0.005-6.341-1.27c-0.17,0.643,0.67,1.041-0.13,1.138
	c-1.609-0.179-0.069-0.563-0.739-1.588c-3.42,0.341-0.66-0.583-4.09-0.703c0.02,0.447,0.81,0.383,1.34,0.481
	c-3.83,0.489-4-0.35-6.391-0.888c-0.979-0.14-0.359,1.329-0.68,1.857c-0.98,0.466-6.28-1.04-4.67,0.388
	c-1.1,1.109-4.561-2.422-5.141,0.355c-0.939-1.412-3.189-0.536-2.119,0.579c0.279,0.158,0.51,0.311,0.609,0.451
	c-0.279-0.152-0.47-0.306-0.609-0.451c-1.49-0.834-5.29-1.741-8.48-1.037c0.24,0.409,1.01,0.47,0.78,1.206
	c-1.08,0.737-2.59-0.007-3.17-0.632c-0.71,1.174,1.45,0.406,0.739,1.579c-1.75-0.05-4.09-0.709-4.26,0.806
	c-1.279-0.818-0.54-1.682-2.12-1.69c-1.13,0.137,1.45,0.85-0.18,1.509c-0.87-2.547-7.26-0.856-10.229,0.335
	c1.939,2.063-3.23,4.143-5.771,4.259c0.16,0.351,0.33-1.72,0.83-1.601c-1.15-0.193-2.95,2.482-3.59,1.382
	c-1.61-0.029,0.64-0.69-0.63-0.956c-1.04-1.302-3.931-0.056-3.36-0.507c-1.37-0.249-1.1-1.27-1.6-0.65
	c-2.79-2.095-8.311,3.903-9.221,2.079c-0.72,0.267-0.81-1.264-1.14-0.611c-1.95,0.045-2.49-0.863-4.05-1.083
	c-2.59,2.393-7.24,0.029-9.44,1.538c0.9,0.852,2.2,1.426,2.07,2.071c-0.86,1.005-1.62-0.959-2.67-0.971
	c0.16,0.476,0.5,0.817,1.3,0.864c-1.07,0.487-2.67,0.433-4.22,0.426c0.07-0.977-2.08-0.713-0.75-1.584
	c-0.811,0.107-4.301-0.182-2.38,0.577c-0.46,0.837-2.141-0.375-2.2-0.94c-0.65,0.199-0.96,0.737-1.1,1.438
	c-1.421-0.962-2.921,0.493-4.131-0.33c-0.54-0.162-1.71,0.967-0.59,1.095c-0.74,0.815-1.45-1.308-2.12-1.691
	c-1.439-0.042-1.42,1.396-3.35,0.876c-0.03,0.372,0.53,0.338,0.88,0.451c-1.55-0.164-3.57,1.497-4.55-0.741
	c-1.47,0.476,0.42,1.517-1.681,2.536c1.631-0.053,1.551-0.32,2.75,0.218c-4.239,0.845-6.989-2.783-9.84-3.073
	c-0.729,0.034-0.18,0.775,0.53,1.099c-2.64-0.606-7.631-2.69-7.13-0.099c-3.382-1.385-5.809,0.232-9.957-1.932
	c0.186,1.123-2.543-0.051-3.762,0.465c1.849,0.869,0.518,1.01-0.27,2.267c0.083-1.337-3.021-0.188-4.586-0.365
	c-3.768-0.421-7.84-2.093-10.932-1.633c-0.669,0.331,0.126,0.642-1.051,1.063c-4.053-2.345-7.01,0.457-9.815,0.745
	c0.301-0.031-0.706-1.36-2.707-0.596c-3.626,1.39-10.207,0.177-15.65-0.864c-1.567-0.138-3.665,1.377-5.096-0.021
	c0.414,1.216-2.128-0.091-1.464,0.646c-1.352,0.275-4.08-1.892-4.638,0.017c-0.86-2.355-3.476-0.993-5.368-1.576
	c2.03,0.616-1.861,1.385,1.193,1.625c-3.18-0.269-8.302-1.716-11.707-2.846c-1.438,0.949-3.369,1.229-3.526,2.395
	c-0.938-0.174,0.072-1.671-0.697-1.964c-1.144-0.536-2.108,1.008-1.785-0.52c-0.538,0.483-2.575,1.142-0.139,1.132
	c-1.462,1.009-3.942-0.632-5.09-0.025c-0.244,0.628,0.269,0.744,0.827,0.831c-4.192-1.021-6.78,1.642-13.94,0.412
	c-0.722-0.119,0.488-0.681-0.373-0.788c-1.763-0.635-1.082,1.17-2.846,0.532c0.272,1.135,0.64,0.485,1.793,0.524
	c-1.646,2.23-5.541-0.734-8.214-1.032c-2.069,0.542-1.454,1.148-2.603,2.464c-3.798,0.083-8.405-1.049-13.642-2.224
	c-0.525-0.12-1.604,0.306-1.881,0.227c-1.277-0.346-2.773-1.576-0.916-0.07c-2.062-0.968-5.899-1.951-8.824-3.755
	c-1.729,0.24-2.762,1.188-4.766,1.146c1.609-0.448-1.274,2.249-1.188,2.196c-0.308,0.183-1.364-0.117-1.37-0.107
	c-0.244,0.12-0.414,0.231-0.538,0.322c0.284,0.503-0.688,0.518,0,0c-0.064-0.11-0.167-0.24-0.385-0.397
	c-0.743-0.545-4.613,0.512-2.93,1.294c-5.812-1.332-9.421-0.723-15.383-3.128c-0.309,0.525,1.675,1.061,0.32,1.168
	c-3.022-3.361-8.138,1.113-11.381-1.669c-0.553,0.021-0.471,0.656-0.595,1.096c-0.767-1.635-1.968-0.812-4.002-1.459
	c-0.981,0.045,0.521,1.224,0.743,1.583c-1.596,0.116-2.569-1.467-4.41-1.878c-3.29,1.222-6.664,0.54-10.693,0.299
	c-0.198,0.559-0.689,0.629-1.55,1.401c-2.26-1.214-2.224,0.312-3.299,0.5c-6.012-1.04-20.123-3.162-26.384-0.189
	c-0.573-0.121-2.118-1.278-2.253-0.559c-0.646-0.218,0.08-0.33,0.091-0.752c-6.345,0.472-13.052-3.706-18.186-2.977
	c0.419,0.512,2.884,0.831,3.167,0.637c0.163,0.351,0.33,0.706,0.832,0.826c-0.861,0.775-2.474-0.268-1.552,1.403
	c-3.843-1.973-6.62,0.811-10.057-1.18c-0.99-0.24-2.658,0.931-1.552,1.401c-2.103,0.376-4.537-2.012-6.616-2.811
	c-0.861,0.272-0.771,1.483-2.43,0.95c0.291,0.375,0.771,0.638,1.289,0.864c-0.344,0.203-4.581-1.348-3.446-2.182
	c-0.679,0.491-2.67,0.336-3.221-0.257c-0.844,1.386,2.044,0.24,1.199,1.626c-0.469-0.484-3.396-1.256-2.839,0.533
	c-1.978-1.427-7.396-1.712-9.006-2.241c-3.272-1.219-6.106-0.29-9.9,1.5c-0.032,0.372,0.521,0.338,0.87,0.454
	c-4.287,0.795-4.76-1.715-9.547-1.524c0.24,0.534,0.896,0.781,1.746,0.905c0.69,0.946-2.787-0.439-3.122-1.013
	c-0.903,0.732-1.672,0.529-1.142,1.815c-0.923-0.184-0.778-1.092-1.709-1.277c-0.696,0.11,0.136,0.496-0.131,1.131
	c-3.856-0.21-13.564-3.005-13.062,0.868c-4.594-0.504-7.242,0.992-10.79,1.056c0.124-0.41,0.458-0.6,0.926-0.654
	c-2.556-0.376-4.716-2.848-8.328-3.37c-3.885-0.566-9.979,2.502-11.839-1.702c-0.447,0.261-1.086,0.322-1.881,0.227
	c-0.262-0.74-1.344-0.368-0.326-1.171c-1.651-0.215-4.403,0.852-6.471-0.127c-1.644,2.621-7.907-0.286-9.032,1.947
	c-0.746-0.795-4.285-3.164-5.005-0.778c-0.365-1.758-7.539-1.017-3.346,0.882c-0.772,0.159-2.969-1.688-3.862-2.596
	c-1.581,0.213-0.15,0.837-1.093,1.437c-0.594-1.666-1.111,0.669-3.582-1.049c0.098,0.847-2.264,0.889-2.607,2.465
	c-2.062-1.656-2.367-0.676-5.374-1.572c-0.776,1.248-6.279,3.25-8.442,0.855c-5.729,2.577-13.021,2.142-19.038,0.393
	c-2.699-0.153-6.036,1.944-9.771,0.367c-0.584,0.05-0.55,0.721-0.083,0.757c-3.367,0.034-9.879-0.512-11.829,2.113
	c-2.802-2.401-13.649-0.091-17.355-2.145c-7.736,0.869-13.333,3.614-22.889,1.616c-1.369,0.881-0.629,1.24-0.264,2.27
	c-5.374-2.451-12.922-1.729-16.377,1.369c0.282-0.286,0.553-0.574,0.593-1.097c-4.496,0.694-10.342,1.479-14.763,3.408
	c-1.691-2.953-7.244-1.517-9.781-3.452c-2.46,2.596-12.408,2.335-17.71,0.884c-0.367,1.888-5.746-0.088-7.979,0.888
	c0.323-0.711-7.065-1.641-9.183-0.731c-0.091-0.653,0.444-0.682,1.011-0.682c-4.854-1.685-7.935-1.618-12.724-2.155
	c0.321,0.364,0.396,0.893,0.284,1.55c-0.39-1.369-4.409-2.265-4.085-0.708c-0.914-0.078-0.464-1.077-1.745-0.9
	c-0.898,1.076-2.742,1.203-3.527,2.39c-1.126-0.313-1.502-0.426-3.127-1.01c-1.188-0.005,0.558,0.701-0.175,1.512
	c-4.271-0.349-9.037-2.716-10.097-0.807c-0.898-0.111-1.496-0.512-2.843,0.542c0.046-0.381,0.092-0.756,0.134-1.138
	c-2.664,2.854-6.737,1.232-11.235,1.019c-0.543,0.017-0.471,0.657-0.59,1.094c-5.839-1.004-7.532,0.733-11.935-0.946
	c-0.6-0.131-0.421,0.731,0.116,1.087c0.222,0.042,0.44,0.065,0.669,0.12c-0.257,0.065-0.485,0-0.669-0.12
	c-4.105-0.777-7.975,0.335-11.854,0.269c-0.253,1.1,0.898,1.246,0.647,2.34c-0.895,0.637-1.315-0.269-2.251-0.563
	c0.165,0.356,0.326,0.712,0.83,0.829c-0.299,1.455-3.598-1.001-3.851,1.223c-3.438-1.199-7.583-0.512-11.756-2.464
	c-3.438,1.369-8.325,0.274-11.937-0.947c-2.169,1.576-5.668,1.993-6.688,1.763c-0.945,2.186-3.114,1.248-4.615,3.829
	c-0.512-2.609-3.863-0.414-4.415-1.877c-0.545,0.02-0.465,0.656-0.596,1.096c-4.581-1.963-8.844-0.783-13.081-2.95
	c-2.35,2.172-4.318,0.639-7.522,0.932c-0.181,0.814,0.236,1.233,1.243,1.245c-1.289,1.049-5.984-0.747-1.376-0.107
	c-0.333-0.472-0.487-1.062-0.235-1.931c-0.857-0.012-0.434,1.258-1.098,1.439c-1.251-2.319-4.907-1.683-7.671-1.752
	c0.636,0.494,1,1.179,2.162,1.315c-5.002-0.315-10.488-1.37-15.779,0.276c-0.64-0.384-1.391-0.682-1.201-1.628
	c-0.644,0.776-1.803,2.298-2.931,1.298c0.953,0.624-0.687,0.875,0.327,1.169c-2.684-0.913-3.837,1.654-7.938,0.512
	c-0.729,0.141-0.078,0.393,0.416,0.414c-6.354,3.561-17.175-5.267-25.793-1.286c-3.395-1.224-7.209-0.004-10.513-1.217
	c1.514,2.089-5.16-1.574-7.519,0.928c0.48-1.216-0.843-0.65-0.92-0.07c-0.63-0.186,0.038-0.669,0.548-0.72
	c-0.296-0.385-0.765-0.641-1.287-0.869c-0.204,0.469-0.754,1.336-2.89,0.92c0.48,0.488,0.363,1.376,0.194,2.303
	c-0.771,1.153-0.297-1.373-0.236-1.928c-5.914-1.992-8.564,2.055-12.198,1.319c-0.436,0.993,0.86,0.807,1.245,1.242
	c-0.427,0.818-2.303,1.092-2.845,0.542c0.231-0.579,0.767,0.393,0.961-0.307c-0.061-0.417-0.882-0.326-0.826-0.83
	c-2.432,0.974-3.284,0.897-6.055,0.285c-0.796,0.47-1.326,1.207-1.646,2.159c-2.052-0.108,0.524-0.939,0.223-1.896
	c-2.225,2.204-3.851,0.27-5.493,3.383c-0.561-0.533-0.782-1.224-1.375-0.106c-0.664-0.224,0.237-0.472,0.132-1.138
	c-1.508-0.242-0.716,1.82-2.884,0.915c-0.018,0.706,1.524,0.355,1.744,0.9c0.874,1.274-2.613-1.451-3.219-0.25
	c-0.602-0.169-0.262-0.977-0.278-1.551c-0.449,0.181-0.815,0.995-0.957,0.309c-0.706,0.104,0.121,0.493-0.133,1.133
	c-0.871-0.227-0.191-1.495-1.704-1.282c-1.104,0.022,0.388,1.063,0.785,1.207c-0.78,0.047-3.078-1.846-3.319-3.316
	c-0.641,0.768-2.248,0.567-2.516,1.709c-0.669-0.628,0.612-1.862-1.614-2.039c-0.354,1.047-0.47-0.178-1.053,1.062
	c-0.392-1.187-1.81-0.049-0.785-1.21c-0.904-0.196-1.443-0.034-1.462,0.647c-0.793-0.504-1.438-1.108-2.122-1.691
	c-1.903,0.324-2.489,1.315-4.675,0.389c-0.53,1.628,0.948-0.232,0.829,0.825c-1.969,1.767-4.934,0.262-5.859,2.59
	c-5.129-1.888-13.401-1.037-15.21-4.64c-0.637,0.066-0.488,0.909-0.637,1.476c-1.074-0.897-2.045-1.861-3.907-2.22
	c2.424,1.46-3.404,0.268-3.63-0.67c-0.636,0.065-0.489,0.915-0.636,1.477c-1.065-0.279-2.217-1.822-5.002-0.781
	c-0.528-0.104-0.304-0.719-0.325-1.166c-0.88,1.059-6.006-1.411-7.933,0.509c-1.088-0.719-1.197-1.039-2.531-2.11
	c-0.469,0.244-0.781,0.63-1.056,1.062c3.457,0.241-0.958,1.813,1.02,3.137c-0.897,0.476-2.224-1.725-2.442-2.866
	c-0.926,0.901-2.05,1.604-2.648,2.84c-3.192,0.095-7.112-1.475-8.822-3.751c-2.059-0.286-3.258,1.083-5.554-0.066
	c-0.735,1.539-0.82,2.904-0.028,4.197c0.242,1.017-1.343-2.178-1.986-2.824c-0.678,1.03-2.562,0.56-2.882,0.91
	c-0.532-0.104-0.312-0.716-0.326-1.167c-1.031-0.19-1.739-0.05-1.93,0.61c-0.606-0.171-0.268-0.977-0.278-1.548
	c-0.683,0.158-1.188,0.501-1.513,1.021c-0.586-0.807-2.875-1.983-2.338,0.198c-1.701,0.108-0.354-1.848-1.616-2.038
	c-1.544,0.492,1.451,1.543-0.266,2.27c-0.451-0.313,0.08-1.141-0.692-1.963c-0.62,0.083-0.803,0.608-1.464,0.649
	c-0.291,0.889,2.11-0.046,1.239,1.241c-0.853-0.905-1.52,0.211-2.246-0.562c1.126,1.463,0.083,1.061-0.312,2.646
	c-0.074-2.165-5.275-1.701-4.089-0.704c-0.723,0.621-1.363-1.741-2.158-1.319c-0.708,0.111,0.124,0.501-0.134,1.136
	c-1.013,0.101-1.796-2.457-2.253-0.562c-0.529-0.104-0.307-0.719-0.324-1.169c-0.547,0.016-0.47,0.656-0.593,1.096
	c-0.619-0.62-1.245-1.241-2.115-1.691c-0.64,0.066-0.491,0.914-0.64,1.472c-0.531-0.103-0.311-0.719-0.327-1.17
	c-1.375,0.224-0.577,0.525-0.636,1.479c-1.607-0.188-0.882-1.955-3.033-1.769c1.18,2.052,0.028,0.165-1.969,0.984
	c1.299-1.404-0.734,0.369-0.328-1.166c-1.094,1.071-2.61-0.156-5.093-0.025c-6.047-2.867-12.581-4.249-15.8-7.363
	c-6.373-0.607-9.711-0.88-15.968-2.032c0.098,0.86,2.244,0.334,3.166,0.632c-7.923-0.24-15.031-1.873-24.874-1.211
	C5.015,1.98,6.763,2.685,6.033,3.493C5.075,2.985,4.657,2.109,3.462,1.766C3.204,2.749,5.206,2.204,4.661,3.387
	C2.693,3.383,1.391,2.956,0,2.688v215.87c4.856-0.17,6.715,2.686,11.293,3.623c0.102-0.537,0.198-1.066-0.325-1.174
	c0.531-0.984,1.013,0.887,1.244,1.245c0.471-0.37,1.704,0.017,1.51-1.026c0.5,0.476,0.703,1.149,2.208,0.943
	c-0.562-1.742,0.933,0.176,1.594-1.786c0.762,1.179,2.288,0.499,3.123,1.013c0.186-0.814-0.229-1.233-1.24-1.244
	c0.836-1.192,1.028,0.877,2.251,0.561c-0.256-0.408-1.011-0.475-0.788-1.207c2.664,1.717,8.616,3.155,11.255,2.805
	c-0.111-0.447-0.697-1.022-0.869-0.453c0.054-1.871,4.708,1.97,6.333,1.267c-0.542-4.04,8.432,0.467,11.061,0.502
	c0.668,0.002,1.299,0.863,1.291,0.863c0.034-0.005,5.104-2.237,6.511-0.248c-0.231-1.274,6.193,0.083,5.465,0.819
	c1.419,0.293,1.174-1.08,2.841-0.539c-0.324-0.59-1.416-0.666-2.21-0.938c4.312-1.208,7.197,0.852,9.92,2.314
	c0.587-0.123,0.998-0.409,1.056-1.062c1.002,0.018,0.046,1.355,0.234,1.932c1.394-1.009,2.483-0.397,3.394-1.262
	c3.046,2.398,8.02,0.983,9.501,1.902c-0.335-0.579,1.714-0.667,1.055-1.064c2.221-0.734,1.795,1.135,4.501,1.121
	c1.031-0.174-0.724-1.322-1.203-1.625c-0.046-0.947,2.515,1.887,4.415,1.883c1.151-0.258-0.911-1.199-0.195-2.309
	c2.349,1.443,0.803,1.555,2.444,2.87c0.636-0.065,0.492-0.916,0.636-1.479c1.98,1.612,4.003,2.533,5.928,0.855
	c0.244,2.273,2.083-0.505,1.652,1.662c1.52-1.1,2.351,0.053,3.389-1.262c1.348,0.36-0.529,0.775-0.177,1.514
	c1.951-1.35,4.849-0.281,5.451-3c-0.26,1.5,0.628,3.359,2.396,3.24c1.196,0.006-0.556-0.703,0.177-1.513
	c1.009,0.363,0.836,1.527,2.12,1.698c2.331-1.152,4.812-2.133,7.104-1.348c1.181-0.17-0.729-1.071-0.236-1.926
	c0.177,0.728,2.173,1.596,1.878-0.229c1.077-0.035,0.385,1.129,1.245,1.245c0.824,0.028,2.507-2.328,2.795-0.162
	c0.86,0.009,0.438-1.253,1.099-1.442c1.546,0.286-0.936,2.023,0.237,1.93c1.862,0.262,0.34-0.771,0.641-1.476
	c0.318,1.519,3.909-0.185,2.617,1.356c1.501-0.35,2.605-1.332,4.221-0.428c-1.027-0.844-0.389-0.639-0.701-1.971
	c1.59,0.536,2.282-0.636,4.088,0.708c0.854-0.69,0.018-0.483,0.181-1.508c2.103-0.638,8.32,2.368,8.764,0.313
	c2.161-0.388,5.043,1.515,6.929,0.17c1.438,1.683,3.992,0.004,6.338,1.268c0.17-0.639-0.67-1.044,0.129-1.135
	c1.615,0.177,0.063,0.557,0.745,1.587c3.412-0.343,0.656,0.583,4.087,0.703c-0.021-0.445-0.802-0.384-1.334-0.489
	c3.828-0.48,3.999,0.355,6.382,0.895c0.988,0.142,0.363-1.328,0.682-1.856c0.977-0.467,6.279,1.038,4.671-0.392
	c1.099-1.106,4.556,2.427,5.141-0.356c0.938,1.416,3.189,0.543,2.118-0.571c-0.284-0.162-0.51-0.313-0.603-0.455
	c0.271,0.153,0.458,0.308,0.603,0.455c1.485,0.827,5.286,1.731,8.48,1.033c-0.246-0.409-1.008-0.471-0.782-1.206
	c1.082-0.737,2.586,0.009,3.17,0.632c0.71-1.179-1.454-0.404-0.741-1.584c1.745,0.053,4.095,0.713,4.264-0.801
	c1.276,0.818,0.534,1.682,2.116,1.691c1.137-0.137-1.453-0.854,0.178-1.51c0.879,2.547,7.262,0.855,10.232-0.334
	c-1.939-2.064,3.232-1.718,5.77-1.834c-0.16-0.351-0.319-0.707-0.828-0.826c1.152,0.193,2.957-0.055,3.588,1.045
	c1.618,0.029-0.633-1.738,0.63-1.471c1.048,1.303,3.938,0.053,3.361,0.508c1.377,0.25,1.104,1.271,1.599,0.65
	c2.788,2.098,8.309-1.476,9.229,0.348c0.717-0.266,0.808-1.162,1.136-1.816c1.952-0.044,2.488,0.863,4.042,1.084
	c2.599-2.395,7.245-0.027,9.446-1.538c-0.894-0.851-2.201-1.428-2.069-2.071c0.856-1.005,1.618,0.958,2.664,0.971
	c-0.147-0.477-0.496-0.819-1.29-0.862c1.061-0.49,2.657-0.435,4.22-0.427c-0.079,0.976,2.074,0.709,0.741,1.582
	c0.809-0.106,4.3,0.183,2.381-0.575c0.468-0.837,2.138,0.373,2.205,0.94c0.649-0.199,0.957-0.738,1.098-1.44
	c1.414,0.965,2.922-0.49,4.133,0.333c0.539,0.154,1.71-0.969,0.588-1.096c0.738-0.817,1.45,1.306,2.121,1.69
	c1.448,0.041,1.418-1.397,3.347-0.878c0.027-0.371-0.529-0.338-0.874-0.451c1.547,0.167,3.562-1.497,4.543,0.742
	c1.471-0.477-0.413-1.518,1.688-2.536c-1.633,0.054-1.562,0.319-2.755-0.222c4.239-0.84,6.994,2.785,9.836,3.076
	c0.733-0.035,0.185-0.774-0.524-1.101c2.639,0.608,7.631,2.688,7.122,0.101c3.389,1.384,5.809-0.231,9.965,1.934
	c-0.186-1.124,2.537,0.05,3.759-0.468c-1.844-0.868-0.514-1.009,0.268-2.267c-0.082,1.338,3.024,0.188,4.592,0.365
	c3.765,0.422,7.829,2.09,10.925,1.635c0.677-0.332-0.121-0.643,1.052-1.064c4.054,2.345,7.007-0.459,9.817-0.744
	c-0.297,0.027,0.714,1.359,2.709,0.596c3.628-1.39,10.205-0.177,15.647,0.863c1.567,0.139,3.666-1.375,5.096,0.021
	c-0.414-1.222,2.133,0.088,1.465-0.646c1.351-0.277,4.079,1.891,4.63-0.016c0.872,2.351,3.485,0.992,5.377,1.572
	c-2.031-0.613,1.854-1.383-1.191-1.621c3.176,0.268,8.3,1.713,11.708,2.842c1.433-0.945,3.369-1.228,3.519-2.395
	c0.944,0.176-0.07,1.672,0.696,1.965c1.152,0.538,2.114-1.008,1.79,0.521c0.541-0.485,2.581-1.143,0.132-1.133
	c1.471-1.01,3.952,0.632,5.098,0.024c0.246-0.629-0.274-0.743-0.831-0.831c4.198,1.022,6.787-1.642,13.946-0.412
	c0.721,0.118-0.492,0.683,0.37,0.789c1.762,0.631,1.08-1.17,2.843-0.533c-0.27-1.133-0.636-0.483-1.79-0.524
	c1.646-2.228,5.545,0.733,8.216,1.032c2.073-0.543,1.454-1.148,2.604-2.463c3.796-0.088,8.402,1.05,13.642,2.226
	c0.524,0.119,1.602-0.308,1.876-0.229c1.277,0.348,2.775,1.576,0.922,0.069c2.058,0.97,5.895,1.952,8.826,3.755
	c1.727-0.244,2.751-1.184,4.763-1.145c-1.612,0.445,1.272-2.249,1.186-2.195c0.311-0.184,1.365,0.111,1.379,0.105
	c0.239-0.118,0.412-0.23,0.531-0.321c-0.287-0.505,0.683-0.517,0,0c0.062,0.114,0.164,0.239,0.381,0.397
	c0.743,0.543,4.618-0.514,2.936-1.295c5.81,1.332,9.421,0.726,15.381,3.131c0.311-0.526-1.678-1.062-0.325-1.17
	c3.028,3.361,8.143-1.112,11.388,1.67c0.547-0.02,0.466-0.661,0.591-1.101c0.761,1.64,1.969,0.815,3.997,1.464
	c0.99-0.046-0.518-1.224-0.737-1.582c1.596-0.123,2.569,1.467,4.412,1.877c3.286-1.224,6.661-0.539,10.687-0.299
	c0.201-0.558,0.694-0.629,1.556-1.402c2.255,1.216,2.223-0.313,3.306-0.498c6.004,1.041,20.116,3.16,26.38,0.185
	c0.571,0.125,2.12,1.282,2.248,0.562c0.649,0.22-0.082,0.33-0.087,0.754c6.344-0.473,13.05,3.703,18.182,2.979
	c-0.418-0.512-2.882-0.833-3.171-0.639c-0.159-0.352-0.324-0.707-0.823-0.827c0.857-0.776,2.465,0.269,1.549-1.403
	c3.846,1.975,6.614-0.812,10.057,1.18c0.989,0.24,2.662-0.93,1.552-1.4c2.101-0.375,4.54,2.013,6.621,2.812
	c0.852-0.272,0.764-1.485,2.428-0.953c-0.293-0.375-0.771-0.637-1.289-0.863c0.339-0.202,4.573,1.348,3.447,2.183
	c0.676-0.493,2.663-0.334,3.218,0.257c0.84-1.386-2.044-0.24-1.199-1.625c0.471,0.484,3.397,1.256,2.84-0.533
	c1.972,1.427,7.397,1.711,9.004,2.24c3.272,1.219,6.104,0.289,9.902-1.502c0.031-0.371-0.522-0.337-0.874-0.453
	c4.293-0.797,4.759,1.715,9.554,1.527c-0.243-0.535-0.901-0.783-1.752-0.904c-0.698-0.949,2.788,0.437,3.122,1.01
	c0.905-0.73,1.673-0.528,1.14-1.815c0.928,0.183,0.781,1.093,1.707,1.279c0.698-0.115-0.125-0.496,0.135-1.134
	c3.862,0.207,13.564,3.006,13.072-0.868c4.589,0.504,7.234-0.992,10.775-1.054c-0.115,0.408-0.454,0.599-0.92,0.655
	c2.552,0.372,4.721,2.847,8.326,3.368c3.886,0.561,9.98-2.5,11.84,1.701c0.453-0.26,1.085-0.322,1.88-0.225
	c0.265,0.736,1.341,0.366,0.328,1.166c1.65,0.219,4.402-0.849,6.472,0.133c1.64-2.625,7.901,0.283,9.032-1.949
	c0.747,0.793,4.279,3.164,5.003,0.775c0.369,1.758,7.541,1.02,3.346-0.879c0.776-0.162,2.967,1.688,3.866,2.598
	c1.581-0.217,0.149-0.842,1.089-1.442c0.597,1.668,1.107-0.672,3.585,1.054c-0.095-0.85,2.256-0.89,2.608-2.469
	c2.065,1.657,2.358,0.678,5.374,1.573c0.772-1.252,6.276-3.25,8.439-0.856c5.729-2.574,13.022-2.141,19.04-0.393
	c2.697,0.152,6.035-1.942,9.766-0.369c0.59-0.049,0.555-0.719,0.091-0.754c3.364-0.034,9.876,0.512,11.831-2.114
	c2.796,2.402,13.647,0.089,17.354,2.146c7.73-0.867,13.335-3.614,22.887-1.617c1.365-0.881,0.628-1.24,0.264-2.27
	c5.379,2.451,12.921,1.729,16.375-1.367c-0.279,0.285-0.554,0.572-0.593,1.095c4.492-0.693,10.343-1.486,14.763-3.407
	c1.695,2.952,7.247,1.52,9.782,3.452c2.461-2.595,12.407-2.336,17.71-0.886c0.369-1.887,5.747,0.087,7.979-0.889
	c-0.324,0.713,7.065,1.642,9.179,0.733c0.094,0.653-0.44,0.683-1.008,0.683c4.857,1.683,7.938,1.615,12.726,2.153
	c-0.319-0.369-0.394-0.894-0.286-1.553c0.388,1.37,4.41,2.269,4.087,0.711c0.91,0.077,0.464,1.077,1.752,0.899
	c0.89-1.076,2.739-1.203,3.523-2.392c1.124,0.315,1.499,0.428,3.119,1.015c1.188,0.002-0.552-0.701,0.18-1.514
	c4.271,0.348,9.034,2.716,10.094,0.805c0.9,0.11,1.5,0.514,2.841-0.539c-0.039,0.375-0.084,0.758-0.132,1.131
	c2.666-2.849,6.738-1.228,11.236-1.013c0.548-0.019,0.473-0.657,0.589-1.098c5.842,1.006,7.534-0.729,11.938,0.952
	c0.597,0.129,0.417-0.734-0.113-1.09c-0.223-0.041-0.447-0.066-0.672-0.121c0.258-0.065,0.481-0.004,0.672,0.121
	c4.103,0.777,7.97-0.336,11.849-0.269c0.25-1.1-0.898-1.245-0.646-2.34c0.894-0.638,1.317,0.269,2.249,0.562
	c-0.164-0.354-0.326-0.711-0.827-0.828c0.296-1.453,3.595,1.002,3.849-1.223c3.437,1.199,7.581-4.342,11.756-2.393
	c3.438-1.364,8.32-0.27,11.93,0.949c2.178-1.58,5.669-1.998,6.688-1.767c0.948-2.187,3.119,3.611,4.618,1.032
	c0.517,2.609,3.867,0.412,4.415,1.876c0.544-0.021,0.465-0.658,0.595-1.095c4.581,1.964,8.848-4.078,13.086-1.909
	c2.351-2.169,4.317,4.219,7.522,3.927c0.176-0.816-0.238-1.232-1.245-1.245c1.287-1.051,5.988,0.748,1.378,0.106
	c0.333,0.473,0.48,1.062,0.239,1.931c0.85,0.013,0.428-1.256,1.091-1.438c1.256,2.322,4.913-3.176,7.673-3.104
	c-0.63-0.491-1,3.681-2.16,3.544c5,0.312,10.49,1.363,15.78-0.279c0.63,0.386,1.391-4.172,1.2-3.227
	c0.64-0.777,1.8,2.559,2.93,3.561c-0.949-0.625,0.69-0.877-0.33-1.17c2.69,0.912,3.83-1.654,7.94-0.513
	c0.729-0.141,0.08-0.394-0.41-0.414c6.351-3.56,17.17,5.269,25.78,1.287c3.4,1.22,7.21,0.003,10.52,1.216
	c-1.51-2.089,5.16,1.573,7.51-0.927c-0.479,1.216,0.851,0.649,0.921,0.071c0.64,0.181-0.03,0.671-0.55,0.719
	c0.31,0.382,0.77,0.641,1.3,0.863c0.189-0.465,0.75-1.329,2.89-0.91c-0.48-0.49-0.37-1.379-0.2-2.305
	c0.771-1.152,0.3,1.371,0.24,1.926c5.91,1.992,8.56-2.055,12.2-1.319c0.43-0.993-0.87-0.807-1.25-1.239
	c0.42-0.82,2.31-1.093,2.85-0.543c-0.24,0.579-0.77-0.395-0.97,0.305c0.069,0.418,0.89,0.326,0.83,0.832
	c2.43-0.976,3.28-0.898,6.06-0.287c0.79-0.471,1.32-1.207,1.641-2.157c2.06,0.108-0.521,0.937-0.221,1.888
	c2.221-2.199,3.851-0.263,5.49-3.377c0.561,0.535,0.78,1.223,1.38,0.108c0.66,0.224-0.239,0.472-0.13,1.137
	c1.5,0.244,0.71-1.819,2.88-0.917c0.021-0.702-1.53-0.352-1.739-0.898c-0.881-1.273,2.609,1.447,3.209,0.252
	c0.601,0.172,0.261,0.976,0.28,1.55c0.44-0.183,0.82-0.996,0.96-0.308c0.7-0.104-0.12-0.492,0.13-1.134
	c0.87,0.228,0.2,1.497,1.71,1.282c1.101-0.021-0.399-1.064-0.789-1.208c0.779-0.044,3.079,1.849,3.319,3.317
	c0.64-0.767,2.24-0.566,2.521-1.711c0.66,0.631-0.62,1.861,1.609,2.039c0.351-1.043,0.471,0.181,1.051-1.061
	c0.399,1.184,1.81,0.049,0.789,1.21c0.9,0.192,1.44,0.034,1.461-0.649c0.789,0.504,1.439,1.108,2.119,1.692
	c1.9-0.324,2.49-1.315,4.681-0.39c0.529-1.631-0.95,0.229-0.83-0.826c1.96-1.771,4.93-0.262,5.85-2.59
	c5.13,1.889,13.41,1.039,15.22,4.638c0.631-0.065,0.48-0.909,0.631-1.476c1.08,0.898,2.05,1.86,3.909,2.22
	c-2.42-1.457,3.41-0.272,3.63,0.671c0.631-0.071,0.49-0.913,0.631-1.477c1.069,0.275,2.22,1.824,5.01,0.783
	c0.52,0.104,0.31,0.719,0.33,1.166c0.87-1.061,6,1.409,7.93-0.51c1.08,0.719,1.19,1.039,2.53,2.107
	c0.46-0.244,0.78-0.627,1.05-1.062c-3.46-0.239,0.96-1.813-1.01-3.134c0.89-0.479,2.22,1.723,2.43,2.865
	c0.93-0.905,2.061-1.604,2.65-2.842c3.199-0.092,7.109,1.478,8.83,3.752c2.05,0.279,3.26-1.084,5.55,0.066
	c0.729-1.542,0.819-2.902,0.02-4.197c-0.229-1.017,1.351,2.179,1.99,2.825c0.68-1.032,2.57-0.559,2.89-0.913
	c0.53,0.105,0.311,0.719,0.32,1.168c1.03,0.192,1.74,0.053,1.93-0.606c0.61,0.165,0.271,0.974,0.28,1.545
	c0.69-0.157,1.19-0.501,1.51-1.025c0.591,0.811,2.88,1.986,2.341-0.194c1.699-0.107,0.35,1.85,1.619,2.033
	c1.54-0.486-1.449-1.537,0.261-2.265c0.46,0.313-0.08,1.142,0.689,1.965c0.62-0.088,0.811-0.608,1.47-0.651
	c0.291-0.889-2.109,0.047-1.239-1.238c0.85,0.904,1.52-0.217,2.25,0.556c-1.141-1.46-0.091-1.061,0.31-2.645
	c0.07,2.161,5.28,1.704,4.09,0.706c0.721-0.618,1.36,1.742,2.16,1.318c0.7-0.111-0.13-0.5,0.13-1.136
	c1.011-0.101,1.8,2.456,2.25,0.562c0.53,0.104,0.311,0.721,0.32,1.17c0.56-0.017,0.479-0.656,0.6-1.096
	c0.62,0.62,1.24,1.238,2.12,1.693c0.641-0.07,0.48-0.916,0.641-1.473c0.529,0.104,0.3,0.721,0.319,1.168
	c1.37-0.223,0.58-0.524,0.641-1.478c1.6,0.189,0.88,1.954,3.02,1.769c-1.18-2.051-0.02-0.17,1.98-0.984
	c-1.3,1.407,0.739-0.368,0.329,1.168c1.091-1.073,2.61,0.157,5.091,0.023c6.069,2.867,12.6,4.246,15.819,7.358
	c6.37,0.608,9.711,0.882,15.971,2.034c-0.101-0.859-2.25-0.334-3.17-0.631c7.92,0.236,15.039,1.874,24.88,1.211
	c1.189,0.004-0.561-0.698,0.17-1.508c0.96,0.509,1.38,1.386,2.58,1.728c0.25-0.983-1.75-0.44-1.2-1.62
	C1289.6,225.268,1290.45,225.395,1291.23,225.549z"/>
</svg>
