<svg width="1292" height="230" viewBox="0 0 1292 230" fill="none" xmlns="http://www.w3.org/2000/svg">
<path d="M1291.23 225.549V9.9876C1287.75 9.46122 1285.82 7.27025 1281.92 6.47053C1281.81 7.00875 1281.72 7.53344 1282.24 7.64599C1281.72 8.63019 1281.23 6.75826 1281 6.40029C1280.53 6.77011 1279.29 6.38421 1279.49 7.42342C1278.99 6.95036 1278.79 6.27674 1277.28 6.48407C1277.85 8.22399 1276.35 6.30551 1275.69 8.26969C1274.93 7.09084 1273.4 7.7687 1272.56 7.25671C1272.38 8.07081 1272.79 8.48887 1273.81 8.50156C1272.97 9.6931 1272.78 7.62399 1271.56 7.9388C1271.81 8.34839 1272.56 8.41355 1272.34 9.14642C1269.68 7.43019 1263.73 5.9907 1261.09 6.34444C1261.2 6.78957 1261.78 7.36418 1261.96 6.7938C1261.9 8.66743 1257.25 4.82201 1255.62 5.52779C1255.3 3.08125 1248.06 5.0742 1244.56 5.02934C1243.9 5.02511 1243.26 4.16531 1243.27 4.16023C1243.24 4.16954 1238.17 6.40029 1236.76 4.41326C1236.99 5.6852 1230.57 4.33033 1231.3 3.59408C1229.87 3.29958 1230.12 4.67307 1228.45 4.13061C1228.78 4.72215 1229.87 4.79578 1230.66 5.06827C1226.35 6.27674 1223.46 4.21778 1220.74 2.75459C1220.16 2.87814 1219.74 3.15826 1219.69 3.81749C1218.69 3.79972 1219.64 2.46009 1219.46 1.88548C1218.06 2.89507 1216.97 2.28153 1216.06 3.14641C1213.02 0.748097 1208.04 2.16305 1206.56 1.24401C1206.89 1.82285 1204.84 1.91002 1205.5 2.30776C1203.28 3.04232 1203.71 1.17461 1201 1.18731C1199.97 1.35995 1201.73 2.51002 1202.2 2.80959C1202.25 3.75741 1199.69 0.924966 1197.79 0.93089C1196.64 1.18646 1198.71 2.12835 1197.99 3.23696C1195.63 1.79323 1197.18 1.68153 1195.54 0.366432C1194.9 0.434133 1195.05 1.28547 1194.9 1.84739C1192.93 0.233569 1190.91 -0.688858 1188.98 0.990128C1188.74 -1.28378 1186.89 3.92158 1187.33 1.75515C1185.81 2.86037 1184.98 -0.725248 1183.94 0.588999C1182.59 0.230184 1184.47 2.24344 1184.12 1.50296C1182.16 2.85106 1179.27 -0.641467 1178.67 2.07842C1178.92 0.577152 1178.03 1.14415 1176.26 1.26516C1175.07 1.25924 1176.82 -0.459521 1176.09 0.349507C1175.08 -0.0126939 1175.25 1.25332 1173.97 1.07814C1171.64 2.23244 1169.16 0.784486 1166.86 0C1165.69 0.168406 1167.6 1.06968 1167.1 1.9261C1166.93 1.19916 1164.93 0.332581 1165.22 2.15459C1164.15 2.18844 1164.84 1.02567 1163.98 0.909733C1163.16 0.879268 1161.48 3.23696 1161.18 1.06883C1160.33 1.06291 1160.74 2.32807 1160.08 2.5134C1158.53 2.2299 1161.02 0.491679 1159.85 0.582229C1157.99 0.317349 1159.51 1.35148 1159.21 2.05811C1158.89 0.540762 1155.3 2.24175 1156.59 0.702399C1155.09 1.0536 1153.98 2.03865 1152.38 1.1323C1153.39 1.97518 1152.76 1.76784 1153.07 3.09563C1151.48 2.56672 1150.78 3.73625 1148.98 2.39323C1148.13 3.07955 1148.96 2.87645 1148.8 3.90127C1146.7 4.53851 1140.48 1.52751 1140.04 3.58731C1137.88 3.9749 1134.99 2.07504 1133.11 3.41806C1131.67 1.73399 1129.12 3.41298 1126.77 2.14866C1126.6 2.79098 1127.44 3.18957 1126.64 3.28604C1125.03 3.10748 1126.57 2.72328 1125.9 1.69845C1122.48 2.03949 1125.24 1.11538 1121.81 0.995206C1121.83 1.44203 1122.62 1.37856 1123.15 1.47673C1119.32 1.96587 1119.15 1.12638 1116.76 0.588999C1115.78 0.449366 1116.4 1.91763 1116.08 2.44655C1115.1 2.91199 1109.8 1.40649 1111.41 2.83414C1110.31 3.94359 1106.85 0.41213 1106.27 3.18957C1105.33 1.77715 1103.08 2.65388 1104.15 3.76841C1104.43 3.92666 1104.66 4.07899 1104.76 4.21947C1104.48 4.06714 1104.29 3.91397 1104.15 3.76841C1102.66 2.934 1098.86 2.02765 1095.67 2.73174C1095.91 3.14048 1096.68 3.20226 1096.45 3.93766C1095.37 4.67476 1093.86 3.93089 1093.28 3.3055C1092.57 4.48012 1094.73 3.71171 1094.02 4.88463C1092.27 4.8347 1089.93 4.17546 1089.76 5.69112C1088.48 4.87279 1089.22 4.00875 1087.64 4.00029C1086.51 4.13738 1089.09 4.85078 1087.46 5.50917C1086.59 2.96192 1080.2 4.65276 1077.23 5.8443C1079.17 7.90749 1074 9.98676 1071.46 10.1035C1071.62 10.4547 1071.79 8.38309 1072.29 8.50241C1071.14 8.30946 1069.34 10.9845 1068.7 9.88436C1067.09 9.85558 1069.34 9.19381 1068.07 8.92808C1067.03 7.62653 1064.14 8.87223 1064.71 8.42117C1063.34 8.17237 1063.61 7.15093 1063.11 7.77039C1060.32 5.67589 1054.8 11.6734 1053.89 9.84966C1053.17 10.1162 1053.08 8.58619 1052.75 9.23866C1050.8 9.28436 1050.26 8.37547 1048.7 8.15629C1046.11 10.5495 1041.46 8.18506 1039.26 9.69395C1040.16 10.5453 1041.46 11.1199 1041.33 11.7648C1040.47 12.7701 1039.71 10.8059 1038.66 10.7941C1038.82 11.2697 1039.16 11.6116 1039.96 11.6581C1038.89 12.1456 1037.29 12.0914 1035.74 12.0838C1035.81 11.1072 1033.66 11.3712 1034.99 10.4996C1034.18 10.6062 1030.69 10.3176 1032.61 11.0759C1032.14 11.9137 1030.47 10.7018 1030.41 10.1357C1029.76 10.3346 1029.45 10.8728 1029.31 11.5743C1027.89 10.6121 1026.39 12.0669 1025.18 11.2443C1024.64 11.0818 1023.47 12.2116 1024.59 12.3394C1023.85 13.1543 1023.14 11.0319 1022.47 10.6485C1021.03 10.6071 1021.05 12.0449 1019.12 11.5244C1019.09 11.8959 1019.65 11.8629 1020 11.9755C1018.45 11.8113 1016.43 13.4725 1015.45 11.235C1013.98 11.7106 1015.87 12.7515 1013.77 13.7704C1015.4 13.7171 1015.32 13.4505 1016.52 13.9887C1012.28 14.8333 1009.53 11.2062 1006.68 10.916C1005.95 10.9498 1006.5 11.6911 1007.21 12.0144C1004.57 11.4085 999.579 9.32413 1000.08 11.9154C996.698 10.5301 994.271 12.1481 990.123 9.98337C990.309 11.1064 987.58 9.93259 986.361 10.4488C988.21 11.3179 986.879 11.4584 986.092 12.716C986.175 11.3789 983.071 12.5281 981.506 12.3512C977.738 11.9298 973.666 10.2584 970.574 10.7179C969.905 11.0488 970.7 11.3594 969.523 11.7808C965.471 9.43584 962.514 12.2378 959.708 12.5255C960.009 12.4942 959.002 11.1648 957.001 11.9298C953.375 13.3193 946.794 12.1066 941.351 11.0657C939.783 10.9278 937.686 12.4426 936.255 11.0437C936.669 12.2598 934.127 10.9532 934.791 11.6903C933.439 11.9653 930.711 9.79888 930.153 11.7072C929.293 9.35206 926.678 10.7145 924.785 10.1315C926.815 10.7475 922.924 11.516 925.979 11.7563C922.799 11.4872 917.677 10.0401 914.272 8.91031C912.834 9.85897 910.902 10.1391 910.745 11.3052C909.807 11.1309 910.817 9.63386 910.048 9.34106C908.904 8.80452 907.939 10.349 908.263 8.8206C907.725 9.30382 905.687 9.96221 908.124 9.9529C906.662 10.9617 904.182 9.32075 903.034 9.92836C902.79 10.5563 903.303 10.6722 903.861 10.7594C899.669 9.7388 897.081 12.4011 889.921 11.1715C889.199 11.053 890.409 10.4903 889.548 10.3837C887.785 9.74895 888.466 11.554 886.702 10.916C886.975 12.0508 887.342 11.4009 888.495 11.4406C886.849 13.6705 882.954 10.7061 880.281 10.4082C878.212 10.9498 878.827 11.5566 877.679 12.8725C873.881 12.9554 869.273 11.8231 864.037 10.6485C863.512 10.5284 862.433 10.954 862.156 10.8753C860.879 10.5292 859.383 9.29959 861.24 10.8051C859.179 9.83697 855.341 8.85445 852.416 7.05022C850.687 7.29056 849.654 8.23837 847.65 8.19606C849.26 7.74839 846.376 10.4454 846.462 10.3921C846.154 10.5749 845.098 10.2753 845.092 10.2846C844.848 10.4048 844.678 10.5157 844.554 10.6071C844.838 11.1106 843.866 11.125 844.554 10.6071C844.489 10.4971 844.387 10.3667 844.169 10.2093C843.426 9.66433 839.556 10.7213 841.239 11.5033C835.427 10.1721 831.818 10.7805 825.856 8.37547C825.548 8.90015 827.531 9.43668 826.177 9.54416C823.154 6.1828 818.039 10.657 814.796 7.87448C814.243 7.89564 814.325 8.53034 814.201 8.97039C813.435 7.33541 812.233 8.15883 810.199 7.51059C809.218 7.55629 810.72 8.73428 810.942 9.09395C809.347 9.20988 808.373 7.62653 806.532 7.21609C803.242 8.43725 799.868 7.75516 795.839 7.51482C795.641 8.07335 795.149 8.14359 794.289 8.91623C792.029 7.70184 792.065 9.22766 790.99 9.41637C784.979 8.37632 770.867 6.25473 764.606 9.22766C764.033 9.10664 762.488 7.9498 762.353 8.66828C761.707 8.44994 762.434 8.33823 762.444 7.91595C756.1 8.38816 749.393 4.21016 744.259 4.93964C744.678 5.45163 747.143 5.76982 747.426 5.57603C747.589 5.92723 747.756 6.28181 748.258 6.40198C747.397 7.17716 745.784 6.13372 746.706 7.80509C742.863 5.83245 740.086 8.61581 736.649 6.6254C735.659 6.3859 733.991 7.55629 735.098 8.02681C732.995 8.4034 730.561 6.01439 728.481 5.21637C727.62 5.48802 727.711 6.69987 726.052 6.16588C726.343 6.54162 726.823 6.80396 727.341 7.02991C726.997 7.23217 722.76 5.68181 723.895 4.8474C723.216 5.33823 721.225 5.18336 720.674 4.59098C719.83 5.97631 722.718 4.83132 721.873 6.21665C721.404 5.73259 718.477 4.9608 719.034 6.7498C717.057 5.323 711.638 5.03781 710.028 4.50889C706.756 3.28943 703.922 4.21862 700.128 6.00932C700.096 6.38083 700.649 6.34698 700.998 6.46291C696.711 7.2584 696.238 4.74754 691.451 4.93879C691.691 5.47279 692.347 5.71989 693.197 5.8443C693.888 6.79042 690.41 5.40508 690.075 4.83132C689.172 5.56334 688.403 5.36023 688.934 6.64655C688.011 6.46291 688.155 5.55487 687.225 5.36954C686.528 5.47956 687.36 5.86545 687.094 6.501C683.237 6.29112 673.529 3.49591 674.031 7.36926C669.437 6.86489 666.789 8.36108 663.241 8.42455C663.365 8.01496 663.699 7.82455 664.167 7.77039C661.611 7.39465 659.451 4.92271 655.839 4.40057C651.954 3.83442 645.859 6.90297 644 2.69873C643.553 2.95938 642.914 3.02031 642.119 2.92553C641.857 2.1859 640.775 2.55825 641.793 1.75515C640.142 1.5402 637.39 2.60649 635.322 1.62736C633.679 4.24824 627.415 1.34133 626.29 3.57462C625.544 2.77998 622.005 0.411284 621.285 2.7969C620.92 1.03921 613.746 1.78054 617.939 3.67871C617.167 3.8378 614.971 1.99041 614.077 1.08322C612.496 1.29648 613.927 1.92017 612.984 2.52017C612.391 0.854726 611.873 3.18957 609.402 1.47081C609.5 2.31792 607.139 2.35938 606.795 3.93597C604.732 2.27983 604.428 3.25981 601.421 2.36361C600.645 3.61185 595.142 5.61327 592.979 3.21919C587.249 5.79606 579.958 5.36108 573.94 3.61185C571.241 3.45868 567.904 5.55572 564.169 3.97913C563.585 4.02906 563.619 4.70015 564.086 4.73654C560.719 4.77039 554.207 4.22455 552.257 6.84966C549.455 4.44881 538.607 6.75826 534.901 4.70438C527.165 5.57349 521.568 8.31877 512.013 6.32074C510.644 7.2017 511.384 7.56052 511.749 8.59042C506.375 6.13964 498.827 6.8615 495.372 9.95967C495.654 9.67364 495.925 9.38506 495.965 8.86292C491.469 9.55685 485.623 10.3422 481.202 12.2708C479.511 9.31821 473.958 10.7543 471.421 8.81891C468.961 11.4144 459.013 11.1538 453.711 9.70326C453.344 11.5913 447.965 9.61524 445.732 10.591C446.056 9.88012 438.667 8.95008 436.55 9.85981C436.459 9.2065 436.994 9.17773 437.561 9.17773C432.707 7.49282 429.626 7.55967 424.837 7.02314C425.158 7.38703 425.232 7.91595 425.121 8.5735C424.731 7.20424 420.712 6.30805 421.036 7.86517C420.122 7.78732 420.572 6.78788 419.291 6.96475C418.393 8.04035 416.549 8.16813 415.764 9.3546C414.638 9.04148 414.262 8.92893 412.637 8.34416C411.449 8.33908 413.194 9.04486 412.462 9.85643C408.19 9.50777 403.425 7.14077 402.365 9.04994C401.467 8.93908 400.869 8.53795 399.522 9.5924C399.568 9.21158 399.614 8.83584 399.656 8.45417C396.992 11.3078 392.919 9.68633 388.421 9.47307C387.878 9.49 387.95 10.1298 387.831 10.5673C381.992 9.56362 380.299 11.3002 375.896 9.62117C375.297 9.49 375.476 10.3523 376.013 10.7086C376.234 10.7501 376.453 10.7738 376.682 10.8288C376.425 10.8939 376.196 10.8288 376.013 10.7086C371.907 9.93175 368.038 11.0437 364.159 10.9769C363.906 12.077 365.058 12.2226 364.807 13.3168C363.912 13.954 363.491 13.0485 362.556 12.754C362.721 13.1103 362.882 13.4657 363.386 13.5825C363.087 15.0373 359.788 12.5814 359.535 14.8054C356.098 13.6071 351.952 14.2934 347.779 12.3419C344.342 13.7103 339.454 12.6161 335.843 11.3949C333.674 12.9707 330.175 13.3879 329.155 13.1577C328.21 15.3436 326.041 14.4059 324.54 16.9862C324.028 14.3772 320.677 16.5724 320.125 15.1092C319.58 15.1287 319.66 15.765 319.529 16.2051C314.948 14.2418 310.686 15.4223 306.448 13.255C304.098 15.4274 302.13 13.894 298.926 14.1868C298.745 15.0009 299.162 15.4198 300.169 15.4316C298.88 16.481 294.185 14.6844 298.793 15.3241C298.46 14.8528 298.306 14.2621 298.558 13.393C297.701 13.3811 298.124 14.6514 297.46 14.8325C296.209 12.5137 292.553 13.1492 289.789 13.0807C290.425 13.5741 290.789 14.2595 291.951 14.3958C286.949 14.081 281.463 13.0257 276.172 14.6717C275.532 14.2875 274.781 13.9896 274.971 13.0435C274.327 13.8195 273.168 15.3419 272.04 14.3416C272.993 14.9653 271.353 15.2167 272.367 15.5112C269.683 14.598 268.53 17.1648 264.429 16.0232C263.7 16.1645 264.351 16.4167 264.845 16.437C258.491 19.9981 247.67 11.1698 239.052 15.1515C235.657 13.9278 231.843 15.1473 228.539 13.9346C230.053 16.0232 223.379 12.3605 221.02 14.8621C221.5 13.646 220.177 14.2121 220.1 14.7918C219.47 14.6065 220.138 14.1233 220.648 14.0725C220.352 13.6875 219.883 13.4319 219.361 13.2034C219.157 13.6722 218.607 14.5397 216.471 14.1233C216.951 14.6107 216.834 15.4993 216.665 16.426C215.894 17.5786 216.368 15.0525 216.429 14.4982C210.515 12.5061 207.865 16.5529 204.231 15.8175C203.795 16.8102 205.091 16.624 205.476 17.0598C205.049 17.8782 203.173 18.1515 202.631 17.6014C202.862 17.0226 203.398 17.9941 203.592 17.2951C203.531 16.8779 202.71 16.9693 202.766 16.4649C200.334 17.4389 199.482 17.3619 196.711 16.7501C195.915 17.2198 195.385 17.9569 195.065 18.9089C193.013 18.8006 195.589 17.9696 195.288 17.0133C193.063 19.2169 191.437 17.2832 189.795 20.3958C189.234 19.8635 189.013 19.1721 188.42 20.29C187.756 20.0658 188.657 19.8178 188.552 19.1518C187.044 18.9098 187.836 20.9721 185.668 20.0666C185.65 20.7724 187.192 20.422 187.412 20.967C188.286 22.2406 184.799 19.5157 184.193 20.7165C183.591 20.5473 183.931 19.7399 183.915 19.1653C183.466 19.3464 183.1 20.1597 182.958 19.4734C182.252 19.5775 183.079 19.9667 182.825 20.6065C181.954 20.3797 182.634 19.112 181.121 19.3244C180.017 19.3464 181.509 20.3873 181.906 20.5312C181.126 20.5786 178.828 18.6855 178.587 17.2155C177.946 17.9831 176.339 17.7825 176.071 18.925C175.402 18.2962 176.683 17.0632 174.457 16.8863C174.103 17.9332 173.987 16.7078 173.404 17.9484C173.012 16.7619 171.594 17.8993 172.619 16.7382C171.715 16.5419 171.176 16.7044 171.157 17.3856C170.364 16.8813 169.719 16.2779 169.035 15.6948C167.132 16.0189 166.546 17.0099 164.36 16.0841C163.83 17.7123 165.308 15.8522 165.189 16.9092C163.22 18.6762 160.255 17.1707 159.33 19.4988C154.201 17.6107 145.929 18.4621 144.12 14.8595C143.483 14.9255 143.632 15.7684 143.483 16.3354C142.409 15.4384 141.438 14.4745 139.576 14.1157C142 15.5755 136.172 14.3831 135.946 13.4454C135.31 13.5106 135.457 14.3602 135.31 14.9222C134.245 14.6437 133.093 13.1002 130.308 14.1411C129.78 14.0378 130.004 13.4217 129.983 12.9749C129.103 14.0344 123.977 11.5642 122.05 13.4844C120.962 12.765 120.853 12.446 119.519 11.3738C119.05 11.6184 118.738 12.0042 118.463 12.4358C121.92 12.6762 117.505 14.2485 119.483 15.5721C118.586 16.0477 117.259 13.8474 117.041 12.7066C116.115 13.6079 114.991 14.3112 114.393 15.5467C111.201 15.6415 107.281 14.0717 105.571 11.7961C103.512 11.51 102.313 12.8793 100.017 11.7301C99.282 13.2686 99.197 14.6336 99.989 15.9267C100.231 16.9439 98.646 13.7492 98.003 13.1027C97.325 14.1326 95.441 13.6621 95.121 14.0124C94.589 13.9083 94.809 13.2965 94.795 12.8454C93.764 12.655 93.056 12.7955 92.865 13.4556C92.259 13.2846 92.597 12.479 92.587 11.9078C91.904 12.0652 91.399 12.4088 91.074 12.9292C90.488 12.1227 88.199 10.9456 88.736 13.1272C87.035 13.2356 88.382 11.279 87.12 11.0886C85.576 11.5811 88.571 12.6322 86.854 13.3583C86.403 13.0452 86.934 12.2175 86.162 11.3949C85.542 11.4779 85.359 12.0034 84.698 12.044C84.407 12.9326 86.808 11.9983 85.937 13.2846C85.084 12.38 84.417 13.4954 83.691 12.7227C84.817 14.1859 83.774 13.7831 83.379 15.369C83.305 13.2042 78.104 13.668 79.29 14.6649C78.567 15.2861 77.927 12.9241 77.132 13.3456C76.424 13.4564 77.256 13.8466 76.998 14.4821C75.985 14.5828 75.202 12.0254 74.745 13.9193C74.216 13.8161 74.438 13.2 74.421 12.7498C73.874 12.7659 73.951 13.4065 73.828 13.8457C73.209 13.2254 72.583 12.6051 71.713 12.1549C71.073 12.2209 71.222 13.0688 71.073 13.6265C70.542 13.5241 70.762 12.9072 70.746 12.4562C69.371 12.6796 70.169 12.9817 70.11 13.9354C68.503 13.7475 69.228 11.9806 67.077 12.1667C68.257 14.2181 67.105 12.3309 65.108 13.1509C66.407 11.747 64.374 13.5199 64.78 11.9856C63.686 13.0562 62.17 11.8291 59.687 11.9602C53.64 9.0931 47.106 7.71115 43.887 4.5969C37.514 3.98929 34.176 3.71679 27.919 2.56418C28.017 3.42483 30.163 2.89845 31.085 3.19634C23.162 2.956 16.054 1.32356 6.211 1.98533C5.015 1.98026 6.763 2.68435 6.033 3.49338C5.075 2.98562 4.657 2.10889 3.462 1.76615C3.204 2.74866 5.206 2.20367 4.661 3.38675C2.693 3.38336 1.391 2.956 0 2.68858V218.559C4.856 218.388 6.715 221.244 11.293 222.181C11.395 221.645 11.491 221.115 10.968 221.008C11.499 220.023 11.981 221.895 12.212 222.253C12.683 221.883 13.916 222.269 13.722 221.227C14.222 221.702 14.425 222.376 15.93 222.17C15.368 220.428 16.863 222.346 17.524 220.384C18.286 221.562 19.812 220.883 20.647 221.396C20.833 220.582 20.418 220.163 19.407 220.152C20.243 218.96 20.435 221.029 21.658 220.713C21.402 220.305 20.647 220.238 20.87 219.506C23.534 221.223 29.486 222.661 32.125 222.31C32.014 221.863 31.428 221.288 31.256 221.858C31.31 219.986 35.964 223.827 37.589 223.124C37.047 219.084 46.021 223.591 48.65 223.626C49.318 223.628 49.949 224.489 49.941 224.489C49.975 224.484 55.045 222.252 56.452 224.241C56.221 222.967 62.645 224.324 61.917 225.061C63.336 225.353 63.091 223.981 64.758 224.521C64.434 223.931 63.342 223.855 62.548 223.584C66.86 222.376 69.745 224.435 72.468 225.898C73.055 225.775 73.466 225.489 73.524 224.836C74.526 224.854 73.57 226.192 73.758 226.767C75.152 225.759 76.241 226.37 77.152 225.506C80.198 227.904 85.172 226.489 86.653 227.408C86.318 226.829 88.367 226.741 87.708 226.344C89.929 225.609 89.503 227.478 92.209 227.465C93.24 227.291 91.485 226.143 91.006 225.84C90.96 224.893 93.521 227.726 95.421 227.723C96.572 227.465 94.51 226.523 95.226 225.414C97.575 226.857 96.029 226.969 97.67 228.284C98.306 228.219 98.162 227.368 98.306 226.805C100.286 228.417 102.309 229.338 104.234 227.66C104.478 229.934 106.317 227.155 105.886 229.322C107.406 228.222 108.237 229.375 109.275 228.061C110.623 228.421 108.746 228.836 109.098 229.574C111.049 228.225 113.947 229.293 114.549 226.573C114.289 228.074 115.177 229.934 116.945 229.814C118.141 229.82 116.389 229.111 117.122 228.302C118.131 228.665 117.958 229.829 119.242 230C121.573 228.847 124.054 227.867 126.346 228.652C127.527 228.483 125.617 227.581 126.11 226.727C126.287 227.454 128.283 228.322 127.988 226.498C129.065 226.463 128.373 227.627 129.233 227.743C130.057 227.771 131.74 225.415 132.028 227.581C132.888 227.59 132.466 226.328 133.127 226.139C134.673 226.425 132.191 228.162 133.364 228.068C135.226 228.33 133.704 227.297 134.005 226.593C134.323 228.112 137.914 226.408 136.622 227.949C138.123 227.599 139.227 226.617 140.843 227.522C139.816 226.678 140.454 226.883 140.142 225.551C141.732 226.087 142.424 224.915 144.23 226.259C145.084 225.569 144.248 225.776 144.411 224.751C146.514 224.113 152.731 227.119 153.175 225.064C155.336 224.677 158.218 226.579 160.104 225.234C161.542 226.917 164.096 225.238 166.442 226.502C166.612 225.863 165.772 225.458 166.571 225.367C168.186 225.544 166.634 225.924 167.316 226.954C170.728 226.611 167.972 227.537 171.403 227.657C171.382 227.212 170.601 227.273 170.069 227.168C173.897 226.687 174.068 227.524 176.451 228.062C177.439 228.204 176.814 226.735 177.133 226.206C178.11 225.739 183.412 227.244 181.804 225.814C182.903 224.708 186.36 228.241 186.945 225.458C187.883 226.874 190.134 226.001 189.063 224.887C188.779 224.725 188.553 224.573 188.46 224.432C188.731 224.585 188.918 224.739 189.063 224.887C190.548 225.714 194.349 226.618 197.543 225.92C197.297 225.511 196.535 225.449 196.761 224.714C197.843 223.977 199.347 224.722 199.931 225.346C200.641 224.167 198.477 224.941 199.19 223.762C200.935 223.815 203.285 224.474 203.454 222.961C204.73 223.779 203.988 224.643 205.57 224.652C206.707 224.515 204.117 223.799 205.748 223.143C206.627 225.69 213.01 223.998 215.98 222.808C214.041 220.744 219.212 221.091 221.75 220.975C221.59 220.624 221.431 220.267 220.922 220.148C222.074 220.342 223.879 220.094 224.51 221.194C226.128 221.223 223.877 219.455 225.14 219.722C226.188 221.025 229.078 219.775 228.501 220.231C229.878 220.48 229.605 221.501 230.1 220.881C232.888 222.978 238.409 219.405 239.329 221.228C240.046 220.963 240.137 220.066 240.465 219.412C242.417 219.368 242.953 220.276 244.507 220.496C247.106 218.101 251.752 220.469 253.953 218.958C253.059 218.107 251.752 217.53 251.884 216.887C252.74 215.882 253.502 217.845 254.548 217.857C254.401 217.381 254.052 217.038 253.258 216.995C254.319 216.505 255.915 216.56 257.478 216.569C257.399 217.544 259.552 217.278 258.219 218.151C259.028 218.044 262.519 218.333 260.6 217.575C261.068 216.738 262.738 217.948 262.805 218.515C263.454 218.316 263.762 217.778 263.903 217.075C265.317 218.04 266.825 216.585 268.036 217.408C268.575 217.563 269.746 216.439 268.624 216.312C269.362 215.495 270.074 217.618 270.745 218.003C272.193 218.044 272.163 216.606 274.092 217.125C274.119 216.754 273.563 216.787 273.218 216.674C274.765 216.841 276.78 215.177 277.761 217.416C279.232 216.94 277.348 215.898 279.449 214.88C277.816 214.933 277.887 215.199 276.694 214.658C280.933 213.819 283.688 217.443 286.53 217.735C287.263 217.699 286.715 216.96 286.006 216.634C288.645 217.242 293.637 219.322 293.128 216.734C296.517 218.118 298.937 216.503 303.093 218.668C302.907 217.544 305.63 218.718 306.852 218.2C305.008 217.332 306.338 217.191 307.119 215.933C307.037 217.271 310.144 216.121 311.711 216.299C315.476 216.721 319.54 218.388 322.636 217.933C323.313 217.601 322.515 217.291 323.687 216.869C327.741 219.214 330.694 216.41 333.505 216.125C333.208 216.153 334.219 217.485 336.214 216.721C339.842 215.331 346.419 216.544 351.861 217.584C353.429 217.722 355.527 216.209 356.957 217.605C356.543 216.384 359.09 217.693 358.422 216.959C359.772 216.682 362.501 218.85 363.052 216.943C363.924 219.294 366.537 217.935 368.429 218.515C366.397 217.903 370.283 217.133 367.237 216.894C370.413 217.162 375.537 218.608 378.945 219.737C380.378 218.791 382.314 218.509 382.464 217.342C383.408 217.517 382.394 219.013 383.16 219.307C384.312 219.845 385.274 218.299 384.95 219.828C385.491 219.343 387.531 218.686 385.082 218.695C386.553 217.686 389.034 219.327 390.18 218.72C390.426 218.091 389.905 217.976 389.349 217.888C393.547 218.911 396.136 216.247 403.295 217.476C404.016 217.595 402.803 218.159 403.665 218.266C405.427 218.897 404.745 217.096 406.508 217.733C406.238 216.599 405.872 217.249 404.718 217.208C406.364 214.98 410.263 217.942 412.934 218.24C415.007 217.697 414.388 217.092 415.538 215.777C419.334 215.689 423.94 216.827 429.18 218.003C429.704 218.122 430.781 217.696 431.056 217.774C432.333 218.121 433.831 219.35 431.978 217.843C434.035 218.812 437.872 219.795 440.804 221.597C442.53 221.353 443.555 220.414 445.566 220.453C443.954 220.899 446.839 218.204 446.752 218.258C447.063 218.074 448.117 218.369 448.131 218.363C448.37 218.245 448.543 218.133 448.662 218.042C448.375 217.537 449.345 217.526 448.662 218.042C448.724 218.156 448.826 218.281 449.043 218.439C449.786 218.982 453.661 217.926 451.979 217.145C457.788 218.476 461.399 217.87 467.359 220.276C467.67 219.749 465.682 219.214 467.034 219.105C470.062 222.467 475.177 217.993 478.422 220.775C478.969 220.756 478.888 220.114 479.013 219.675C479.773 221.315 480.981 220.49 483.01 221.139C484 221.093 482.492 219.915 482.272 219.556C483.868 219.434 484.842 221.023 486.685 221.433C489.971 220.21 493.346 220.895 497.371 221.135C497.572 220.577 498.065 220.506 498.927 219.733C501.182 220.948 501.149 219.419 502.232 219.234C508.236 220.275 522.349 222.395 528.612 219.419C529.184 219.544 530.732 220.701 530.86 219.981C531.51 220.2 530.778 220.311 530.773 220.734C537.117 220.262 543.823 224.438 548.955 223.713C548.537 223.201 546.073 222.88 545.784 223.074C545.625 222.723 545.46 222.367 544.961 222.247C545.818 221.471 547.426 222.515 546.51 220.844C550.355 222.818 553.124 220.031 556.566 222.023C557.556 222.264 559.229 221.094 558.118 220.623C560.219 220.248 562.658 222.636 564.739 223.435C565.591 223.163 565.503 221.95 567.167 222.483C566.874 222.108 566.397 221.846 565.878 221.619C566.217 221.417 570.451 222.967 569.325 223.802C570.001 223.309 571.988 223.468 572.543 224.058C573.383 222.673 570.499 223.818 571.344 222.433C571.814 222.918 574.741 223.69 574.184 221.9C576.155 223.327 581.581 223.611 583.188 224.14C586.46 225.36 589.292 224.43 593.09 222.638C593.121 222.268 592.567 222.302 592.216 222.186C596.509 221.389 596.975 223.9 601.77 223.713C601.526 223.178 600.868 222.93 600.018 222.808C599.319 221.859 602.806 223.245 603.14 223.818C604.045 223.088 604.813 223.29 604.279 222.003C605.207 222.186 605.061 223.096 605.986 223.282C606.685 223.167 605.861 222.786 606.121 222.148C609.983 222.355 619.686 225.154 619.193 221.28C623.782 221.784 626.428 220.288 629.969 220.227C629.854 220.635 629.515 220.825 629.049 220.882C631.601 221.254 633.77 223.728 637.375 224.25C641.261 224.81 647.355 221.75 649.215 225.951C649.668 225.692 650.3 225.629 651.095 225.726C651.359 226.463 652.436 226.093 651.423 226.892C653.073 227.112 655.825 226.044 657.895 227.025C659.534 224.401 665.796 227.308 666.927 225.076C667.674 225.869 671.206 228.24 671.93 225.852C672.299 227.61 679.471 226.871 675.275 224.973C676.052 224.81 678.242 226.66 679.142 227.57C680.723 227.353 679.291 226.729 680.23 226.128C680.827 227.795 681.338 225.456 683.815 227.181C683.721 226.332 686.071 226.292 686.424 224.713C688.489 226.37 688.782 225.39 691.798 226.286C692.57 225.034 698.074 223.036 700.237 225.43C705.967 222.856 713.26 223.289 719.277 225.037C721.975 225.19 725.313 223.095 729.043 224.668C729.633 224.619 729.598 223.949 729.134 223.914C732.498 223.88 739.01 224.426 740.965 221.8C743.761 224.202 754.612 221.888 758.319 223.945C766.05 223.078 771.654 220.331 781.206 222.328C782.571 221.447 781.834 221.088 781.47 220.058C786.849 222.51 794.391 221.787 797.845 218.691C797.565 218.976 797.291 219.264 797.252 219.786C801.744 219.093 807.595 218.3 812.015 216.379C813.71 219.331 819.262 217.898 821.797 219.831C824.258 217.236 834.204 217.495 839.507 218.946C839.876 217.058 845.254 219.032 847.485 218.057C847.161 218.77 854.551 219.698 856.664 218.79C856.758 219.443 856.224 219.472 855.656 219.472C860.514 221.155 863.594 221.088 868.382 221.626C868.063 221.257 867.988 220.733 868.096 220.073C868.483 221.443 872.506 222.342 872.183 220.784C873.093 220.861 872.647 221.861 873.935 221.683C874.824 220.608 876.674 220.481 877.458 219.292C878.582 219.608 878.957 219.72 880.577 220.307C881.766 220.309 880.025 219.605 880.757 218.793C885.027 219.14 889.791 221.509 890.851 219.598C891.751 219.708 892.351 220.111 893.691 219.058C893.652 219.433 893.607 219.816 893.56 220.189C896.226 217.341 900.298 218.962 904.796 219.177C905.344 219.158 905.269 218.52 905.385 218.079C911.227 219.085 912.919 217.35 917.323 219.031C917.92 219.16 917.74 218.297 917.21 217.941C916.987 217.901 916.763 217.875 916.538 217.821C916.796 217.755 917.02 217.815 917.21 217.941C921.312 218.719 925.18 217.606 929.059 217.673C929.309 216.573 928.16 216.428 928.413 215.333C929.307 214.695 929.73 215.602 930.662 215.894C930.498 215.54 930.336 215.183 929.835 215.066C930.131 213.613 933.43 216.069 933.684 213.844C937.12 215.043 941.265 209.502 945.439 211.451C948.877 210.087 953.76 211.181 957.369 212.4C959.547 210.821 963.038 210.402 964.058 210.634C965.006 208.447 967.177 214.245 968.676 211.666C969.192 214.275 972.543 212.078 973.091 213.542C973.635 213.522 973.556 212.884 973.686 212.447C978.267 214.411 982.533 208.369 986.771 210.538C989.122 208.369 991.089 214.757 994.294 214.465C994.47 213.649 994.056 213.233 993.049 213.22C994.336 212.169 999.037 213.968 994.427 213.326C994.76 213.799 994.907 214.389 994.666 215.257C995.516 215.27 995.094 214.001 995.757 213.819C997.013 216.14 1000.67 210.643 1003.43 210.714C1002.8 210.222 1002.43 214.394 1001.27 214.258C1006.27 214.57 1011.76 215.621 1017.05 213.979C1017.68 214.364 1018.44 209.807 1018.25 210.752C1018.89 209.975 1020.05 213.311 1021.18 214.312C1020.23 213.687 1021.87 213.436 1020.85 213.142C1023.54 214.055 1024.68 211.488 1028.79 212.63C1029.52 212.489 1028.87 212.237 1028.38 212.216C1034.73 208.656 1045.55 217.485 1054.16 213.503C1057.56 214.722 1061.37 213.506 1064.68 214.719C1063.17 212.63 1069.84 216.292 1072.19 213.792C1071.71 215.008 1073.04 214.441 1073.11 213.863C1073.75 214.044 1073.08 214.534 1072.56 214.582C1072.87 214.964 1073.33 215.223 1073.86 215.446C1074.05 214.981 1074.61 214.116 1076.75 214.535C1076.27 214.045 1076.38 213.156 1076.55 212.231C1077.32 211.078 1076.85 213.601 1076.79 214.156C1082.7 216.149 1085.35 212.102 1088.99 212.837C1089.42 211.844 1088.12 212.03 1087.74 211.597C1088.16 210.777 1090.05 210.505 1090.59 211.054C1090.35 211.634 1089.82 210.66 1089.62 211.36C1089.69 211.777 1090.51 211.685 1090.45 212.192C1092.88 211.216 1093.73 211.293 1096.51 211.904C1097.3 211.434 1097.83 210.697 1098.15 209.747C1100.21 209.856 1097.63 210.683 1097.93 211.635C1100.15 209.436 1101.78 211.372 1103.42 208.258C1103.98 208.793 1104.2 209.48 1104.8 208.366C1105.46 208.59 1104.56 208.838 1104.67 209.503C1106.17 209.747 1105.38 207.684 1107.55 208.586C1107.57 207.884 1106.02 208.234 1105.81 207.688C1104.93 206.414 1108.42 209.135 1109.02 207.94C1109.62 208.111 1109.28 208.915 1109.3 209.489C1109.74 209.307 1110.12 208.493 1110.26 209.181C1110.96 209.077 1110.14 208.689 1110.39 208.048C1111.26 208.275 1110.59 209.545 1112.1 209.33C1113.2 209.308 1111.71 208.266 1111.31 208.122C1112.09 208.078 1114.39 209.971 1114.63 211.439C1115.27 210.673 1116.87 210.873 1117.15 209.729C1117.81 210.359 1116.53 211.59 1118.76 211.768C1119.11 210.724 1119.23 211.948 1119.81 210.707C1120.21 211.89 1121.62 210.756 1120.6 211.917C1121.5 212.11 1122.04 211.951 1122.06 211.268C1122.85 211.772 1123.5 212.376 1124.18 212.96C1126.08 212.636 1126.67 211.645 1128.86 212.57C1129.39 210.94 1127.91 212.8 1128.03 211.744C1130 209.973 1132.96 211.482 1133.88 209.154C1139.01 211.043 1147.29 210.193 1149.1 213.792C1149.73 213.727 1149.58 212.883 1149.73 212.316C1150.81 213.215 1151.78 214.177 1153.64 214.536C1151.22 213.079 1157.05 214.263 1157.27 215.207C1157.9 215.136 1157.76 214.294 1157.9 213.731C1158.97 214.006 1160.12 215.555 1162.91 214.514C1163.43 214.617 1163.22 215.233 1163.24 215.679C1164.11 214.619 1169.24 217.089 1171.17 215.17C1172.25 215.889 1172.36 216.209 1173.7 217.278C1174.16 217.033 1174.48 216.651 1174.75 216.216C1171.29 215.976 1175.71 214.403 1173.74 213.082C1174.63 212.604 1175.96 214.805 1176.17 215.947C1177.1 215.042 1178.23 214.344 1178.82 213.106C1182.02 213.013 1185.93 214.583 1187.65 216.858C1189.7 217.137 1190.91 215.774 1193.2 216.924C1193.93 215.382 1194.02 214.021 1193.22 212.727C1192.99 211.71 1194.57 214.905 1195.21 215.552C1195.89 214.52 1197.78 214.993 1198.1 214.638C1198.63 214.744 1198.41 215.357 1198.42 215.807C1199.45 215.999 1200.16 215.859 1200.35 215.2C1200.96 215.365 1200.62 216.174 1200.63 216.745C1201.32 216.588 1201.82 216.244 1202.14 215.72C1202.73 216.53 1205.02 217.706 1204.48 215.526C1206.18 215.418 1204.83 217.375 1206.1 217.559C1207.64 217.072 1204.65 216.021 1206.36 215.294C1206.82 215.608 1206.28 216.436 1207.05 217.259C1207.67 217.171 1207.86 216.651 1208.52 216.607C1208.81 215.719 1206.41 216.654 1207.28 215.369C1208.13 216.274 1208.8 215.153 1209.53 215.925C1208.39 214.465 1209.44 214.864 1209.84 213.28C1209.91 215.442 1215.12 214.984 1213.93 213.986C1214.65 213.368 1215.29 215.729 1216.09 215.305C1216.79 215.194 1215.96 214.805 1216.22 214.169C1217.23 214.069 1218.02 216.625 1218.47 214.731C1219 214.835 1218.78 215.451 1218.79 215.9C1219.35 215.884 1219.27 215.244 1219.39 214.805C1220.01 215.425 1220.63 216.043 1221.51 216.498C1222.14 216.428 1222 215.582 1222.15 215.026C1222.68 215.129 1222.45 215.746 1222.47 216.194C1223.84 215.971 1223.05 215.669 1223.11 214.716C1224.71 214.905 1223.99 216.67 1226.13 216.484C1224.95 214.434 1226.11 216.315 1228.11 215.5C1226.81 216.907 1228.85 215.132 1228.44 216.668C1229.53 215.595 1231.05 216.825 1233.53 216.691C1239.6 219.558 1246.13 220.938 1249.35 224.05C1255.72 224.658 1259.06 224.932 1265.32 226.084C1265.22 225.225 1263.07 225.75 1262.15 225.453C1270.07 225.69 1277.19 227.327 1287.03 226.664C1288.22 226.668 1286.47 225.966 1287.2 225.156C1288.16 225.665 1288.58 226.542 1289.78 226.884C1290.03 225.9 1288.03 226.444 1288.58 225.263C1289.6 225.267 1290.45 225.395 1291.23 225.549Z" fill="#1A1B26"/>
</svg>
